<svg width="23" height="35" viewBox="0 0 23 35" fill="none" xmlns="http://www.w3.org/2000/svg">
<path d="M0 4.375C0 3.21468 0.395088 2.10188 1.09835 1.28141C1.80161 0.460936 2.75544 0 3.75 0L18.75 0C19.7446 0 20.6984 0.460936 21.4016 1.28141C22.1049 2.10188 22.5 3.21468 22.5 4.375V33.9062C22.4999 34.1041 22.4538 34.2982 22.3667 34.4679C22.2795 34.6376 22.1545 34.7765 22.005 34.8699C21.8555 34.9633 21.6871 35.0076 21.5177 34.9982C21.3483 34.9887 21.1843 34.9259 21.0431 34.8162L11.25 28.6584L1.45687 34.8162C1.3157 34.9259 1.15168 34.9887 0.982296 34.9982C0.812911 35.0076 0.6445 34.9633 0.494999 34.8699C0.345498 34.7765 0.220508 34.6376 0.133339 34.4679C0.0461701 34.2982 8.76008e-05 34.1041 0 33.9062V4.375ZM3.75 2.1875C3.25272 2.1875 2.77581 2.41797 2.42417 2.8282C2.07254 3.23844 1.875 3.79484 1.875 4.375V31.8631L10.7306 26.4337C10.8845 26.3143 11.0652 26.2506 11.25 26.2506C11.4348 26.2506 11.6155 26.3143 11.7694 26.4337L20.625 31.8631V4.375C20.625 3.79484 20.4275 3.23844 20.0758 2.8282C19.7242 2.41797 19.2473 2.1875 18.75 2.1875H3.75Z" fill="#0F9D58"/>
</svg>
