<svg width="24" height="35" viewBox="0 0 24 35" fill="none" xmlns="http://www.w3.org/2000/svg">
<path d="M0.75 4.375V33.9062C0.749881 34.0962 0.792158 34.2829 0.872671 34.448C0.953184 34.613 1.06916 34.7508 1.20917 34.8477C1.34919 34.9446 1.50842 34.9973 1.6712 35.0006C1.83397 35.0039 1.99468 34.9577 2.1375 34.8666L12 28.5884L21.8625 34.8666C22.0053 34.9577 22.166 35.0039 22.3288 35.0006C22.4916 34.9973 22.6508 34.9446 22.7908 34.8477C22.9308 34.7508 23.0468 34.613 23.1273 34.448C23.2078 34.2829 23.2501 34.0962 23.25 33.9062V4.375C23.25 3.21468 22.8549 2.10188 22.1516 1.28141C21.4484 0.460936 20.4946 0 19.5 0L4.5 0C3.50544 0 2.55161 0.460936 1.84835 1.28141C1.14509 2.10188 0.75 3.21468 0.75 4.375Z" fill="#0F9D58"/>
</svg>
