<svg width="14" height="20" viewBox="0 0 14 20" fill="none" xmlns="http://www.w3.org/2000/svg">
<path fill-rule="evenodd" clip-rule="evenodd" d="M3.5 3.63636C3.5 2.67194 3.86875 1.74702 4.52513 1.06507C5.1815 0.383116 6.07174 0 7 0C7.92826 0 8.8185 0.383116 9.47487 1.06507C10.1313 1.74702 10.5 2.67194 10.5 3.63636V9.09091C10.5 10.0553 10.1313 10.9803 9.47487 11.6622C8.8185 12.3442 7.92826 12.7273 7 12.7273C6.07174 12.7273 5.1815 12.3442 4.52513 11.6622C3.86875 10.9803 3.5 10.0553 3.5 9.09091V3.63636ZM1.75 8.18182C1.75 7.94071 1.65781 7.70948 1.49372 7.53899C1.32962 7.36851 1.10706 7.27273 0.875 7.27273C0.642936 7.27273 0.420376 7.36851 0.256282 7.53899C0.0921874 7.70948 0 7.94071 0 8.18182V9.09091C2.89396e-05 10.8624 0.622289 12.5729 1.75 13.9016C2.87772 15.2302 4.43336 16.0856 6.125 16.3073V19.0909C6.125 19.332 6.21719 19.5632 6.38128 19.7337C6.54538 19.9042 6.76794 20 7 20C7.23206 20 7.45462 19.9042 7.61872 19.7337C7.78281 19.5632 7.875 19.332 7.875 19.0909V16.3073C9.56664 16.0856 11.1223 15.2302 12.25 13.9016C13.3777 12.5729 14 10.8624 14 9.09091V8.18182C14 7.94071 13.9078 7.70948 13.7437 7.53899C13.5796 7.36851 13.3571 7.27273 13.125 7.27273C12.8929 7.27273 12.6704 7.36851 12.5063 7.53899C12.3422 7.70948 12.25 7.94071 12.25 8.18182V9.09091C12.25 10.5375 11.6969 11.9249 10.7123 12.9479C9.72775 13.9708 8.39239 14.5455 7 14.5455C5.60761 14.5455 4.27226 13.9708 3.28769 12.9479C2.30312 11.9249 1.75 10.5375 1.75 9.09091V8.18182Z" fill="#818181"/>
</svg>
