<svg width="13" height="12" viewBox="0 0 13 12" fill="none" xmlns="http://www.w3.org/2000/svg">
<path d="M6.04321 1.04493C5.22091 1.05608 4.5821 1.33067 4.12678 1.86869C3.67145 2.40671 3.4494 3.08957 3.46063 3.91729C3.46887 4.94574 3.85681 5.7558 4.62445 6.34747C4.72262 6.42641 4.75828 6.52879 4.73143 6.65459L4.53932 7.01844C4.47814 7.13969 4.38662 7.23501 4.26476 7.30439C4.14291 7.37378 3.88583 7.47385 3.49351 7.60461C3.47645 7.60986 3.11666 7.71759 2.41416 7.92782C1.71165 8.13804 1.33769 8.2535 1.29228 8.27418C0.814989 8.45627 0.503402 8.64363 0.357519 8.83627C0.201916 9.15447 0.132824 9.95568 0.150244 11.2399L12.2105 11.0763C12.1931 9.79208 12.1023 8.99304 11.9381 8.67918C11.7871 8.49057 11.4705 8.31173 10.9885 8.14266C10.9425 8.12321 10.5656 8.01794 9.85762 7.82685C9.14966 7.63576 8.78709 7.53782 8.76989 7.53304C8.37417 7.41297 8.11447 7.31991 7.99078 7.25385C7.86709 7.1878 7.77302 7.095 7.70857 6.97545L7.50666 6.61694C7.47641 6.49192 7.50928 6.38861 7.60526 6.30703C8.35658 5.69476 8.7224 4.87447 8.70274 3.84618C8.69152 3.01846 8.45103 2.34187 7.98127 1.8164C7.51152 1.29093 6.8655 1.03378 6.04321 1.04493Z" fill="black"/>
</svg>
