<svg width="10" height="12" viewBox="0 0 10 12" fill="none" xmlns="http://www.w3.org/2000/svg">
<path d="M9.53734 4.38034L6.8099 3.91188L5.59066 0.990687C5.55736 0.910706 5.50258 0.84596 5.4349 0.806605C5.26517 0.707581 5.05892 0.790101 4.97406 0.990687L3.75482 3.91188L1.02738 4.38034C0.952185 4.39303 0.883435 4.43493 0.830799 4.4984C0.767164 4.5757 0.732098 4.67969 0.733307 4.78753C0.734515 4.89536 0.771899 4.99822 0.837244 5.0735L2.81058 7.34723L2.34437 10.5579C2.33344 10.6326 2.34043 10.7094 2.36456 10.7796C2.38869 10.8498 2.42898 10.9107 2.48087 10.9552C2.53276 10.9997 2.59418 11.0262 2.65815 11.0316C2.72212 11.037 2.7861 11.0211 2.84281 10.9857L5.28236 9.46989L7.72191 10.9857C7.78851 11.0276 7.86586 11.0416 7.93998 11.0263C8.12689 10.9882 8.25258 10.7788 8.22035 10.5579L7.75414 7.34723L9.72748 5.0735C9.78119 5.01129 9.81664 4.93004 9.82738 4.84118C9.85638 4.61901 9.72533 4.41334 9.53734 4.38034Z" fill="black"/>
</svg>
