<svg width="20" height="20" viewBox="0 0 20 20" fill="none" xmlns="http://www.w3.org/2000/svg">
<path d="M9.57617 6.5625C8.8963 6.5625 8.23169 6.76411 7.6664 7.14182C7.10111 7.51954 6.66051 8.0564 6.40034 8.68453C6.14016 9.31265 6.07209 10.0038 6.20472 10.6706C6.33736 11.3374 6.66475 11.9499 7.14549 12.4307C7.62624 12.9114 8.23874 13.2388 8.90555 13.3715C9.57236 13.5041 10.2635 13.436 10.8916 13.1758C11.5198 12.9157 12.0566 12.4751 12.4343 11.9098C12.8121 11.3445 13.0137 10.6799 13.0137 10C13.0126 9.08864 12.6501 8.2149 12.0057 7.57046C11.3613 6.92603 10.4875 6.56353 9.57617 6.5625V6.5625ZM9.57617 12.1875C9.14353 12.1875 8.7206 12.0592 8.36086 11.8188C8.00113 11.5785 7.72075 11.2368 7.55519 10.8371C7.38962 10.4374 7.3463 9.99757 7.43071 9.57324C7.51511 9.14891 7.72345 8.75913 8.02938 8.4532C8.3353 8.14728 8.72508 7.93894 9.14941 7.85453C9.57375 7.77013 10.0136 7.81345 10.4133 7.97901C10.813 8.14458 11.1546 8.42496 11.395 8.78469C11.6354 9.14442 11.7637 9.56735 11.7637 10C11.763 10.58 11.5323 11.136 11.1222 11.5461C10.7122 11.9562 10.1561 12.1869 9.57617 12.1875V12.1875Z" fill="black"/>
<path d="M18.1523 12.5906L16.9113 11.569C17.1313 10.5346 17.1313 9.46544 16.9113 8.43102L18.1523 7.40942C18.2955 7.29214 18.3922 7.12775 18.4251 6.94567C18.4581 6.76359 18.4252 6.57572 18.3322 6.41571L17.0583 4.20934C16.9662 4.0488 16.82 3.92631 16.6458 3.86382C16.4716 3.80133 16.2808 3.80293 16.1077 3.86832L14.6014 4.43266C13.8167 3.7237 12.891 3.18867 11.885 2.86266L11.6207 1.27785C11.5908 1.09521 11.4968 0.929195 11.3556 0.809561C11.2143 0.689928 11.0351 0.624499 10.8501 0.625003H8.30232C8.11725 0.624506 7.93806 0.689932 7.79684 0.809556C7.65563 0.92918 7.56163 1.09518 7.5317 1.27782L7.26756 2.86266C6.26154 3.18866 5.33583 3.7237 4.55115 4.43266L3.04471 3.86825C2.87158 3.80289 2.68084 3.80132 2.50666 3.86382C2.33248 3.92631 2.18625 4.04879 2.09416 4.2093L0.820292 6.41582C0.727386 6.57585 0.694485 6.76372 0.727482 6.9458C0.760478 7.12787 0.857216 7.29225 1.00037 7.4095L2.24127 8.43102C2.02127 9.46544 2.02127 10.5346 2.24127 11.569L1.00025 12.5906C0.857122 12.7079 0.76041 12.8723 0.727436 13.0543C0.694462 13.2364 0.727378 13.4243 0.820292 13.5843L2.0942 15.7907C2.1863 15.9512 2.33255 16.0737 2.50676 16.1362C2.68096 16.1987 2.87172 16.1971 3.04486 16.1317L4.55119 15.5673C5.33587 16.2763 6.26158 16.8113 7.2676 17.1373L7.53174 18.7222C7.56166 18.9048 7.65565 19.0708 7.79686 19.1904C7.93806 19.3101 8.11725 19.3755 8.30232 19.375H10.8501C11.0351 19.3755 11.2143 19.3101 11.3555 19.1905C11.4968 19.0708 11.5908 18.9048 11.6207 18.7222L11.8849 17.1373C12.8909 16.8113 13.8166 16.2763 14.6013 15.5673L16.1077 16.1318C16.2808 16.1971 16.4715 16.1987 16.6457 16.1362C16.8199 16.0737 16.9661 15.9512 17.0582 15.7907L18.332 13.5842C18.4249 13.4242 18.4579 13.2364 18.425 13.0543C18.3921 12.8723 18.2954 12.7079 18.1523 12.5906V12.5906ZM16.1744 14.8218L14.2951 14.1178L14.0105 14.4043C13.2276 15.1934 12.2483 15.7594 11.1736 16.0438L10.783 16.1468L10.4531 18.125H8.69959L8.36982 16.1468L7.9792 16.0438C6.90454 15.7594 5.92523 15.1934 5.14228 14.4043L4.85771 14.1178L2.97814 14.8218L2.10154 13.3032L3.64955 12.0288L3.54408 11.6393C3.25403 10.5657 3.25403 9.43434 3.54408 8.36075L3.64955 7.97121L2.10154 6.69684L2.97834 5.17817L4.8576 5.88223L5.14217 5.59575C5.92511 4.80659 6.90443 4.2406 7.97908 3.95617L8.3697 3.85321L8.69943 1.875H10.4531L10.7829 3.85321L11.1735 3.95617C12.2481 4.2406 13.2275 4.80659 14.0104 5.59575L14.295 5.88223L16.1742 5.17817L17.0511 6.6968L15.5031 7.97121L15.6085 8.36075C15.8986 9.43434 15.8986 10.5657 15.6085 11.6393L15.5031 12.0288L17.0511 13.3032L16.1744 14.8218Z" fill="black"/>
</svg>
