<svg width="25" height="25" viewBox="0 0 25 25" fill="none" xmlns="http://www.w3.org/2000/svg">
<path d="M13.01 0.205264C12.8621 0.0722415 12.68 0 12.4925 0C12.305 0 12.1229 0.0722415 11.975 0.205264L0 10.9795L1.03583 12.4911L2.5 11.1738V23.0769C2.50088 23.5866 2.67676 24.0752 2.98913 24.4356C3.3015 24.796 3.72491 24.999 4.16667 25H20.8333C21.2751 24.999 21.6985 24.796 22.0109 24.4356C22.3232 24.0752 22.4991 23.5866 22.5 23.0769V11.1824L23.9642 12.4997L25 10.9882L13.01 0.205264ZM14.1667 23.0769H10.8333V15.3844H14.1667V23.0769ZM15.8333 23.0769V15.3844C15.8329 14.8745 15.6572 14.3857 15.3447 14.0251C15.0322 13.6646 14.6086 13.4618 14.1667 13.4613H10.8333C10.3914 13.4618 9.96777 13.6646 9.65531 14.0251C9.34284 14.3857 9.16711 14.8745 9.16667 15.3844V23.0769H4.16667V9.67469L12.5 2.18415L20.8333 9.6843V23.0769H15.8333Z" fill="#818181"/>
</svg>
