<svg width="17" height="11" viewBox="0 0 17 11" fill="none" xmlns="http://www.w3.org/2000/svg">
<path d="M0.6875 1.72161C0.6875 1.50483 0.76981 1.29693 0.916323 1.14364C1.06284 0.990352 1.26155 0.904236 1.46875 0.904236H15.5312C15.7385 0.904236 15.9372 0.990352 16.0837 1.14364C16.2302 1.29693 16.3125 1.50483 16.3125 1.72161C16.3125 1.93839 16.2302 2.14629 16.0837 2.29958C15.9372 2.45287 15.7385 2.53898 15.5312 2.53898H1.46875C1.26155 2.53898 1.06284 2.45287 0.916323 2.29958C0.76981 2.14629 0.6875 1.93839 0.6875 1.72161ZM0.6875 5.80847C0.6875 5.59169 0.76981 5.38379 0.916323 5.2305C1.06284 5.07722 1.26155 4.9911 1.46875 4.9911H15.5312C15.7385 4.9911 15.9372 5.07722 16.0837 5.2305C16.2302 5.38379 16.3125 5.59169 16.3125 5.80847C16.3125 6.02525 16.2302 6.23316 16.0837 6.38644C15.9372 6.53973 15.7385 6.62585 15.5312 6.62585H1.46875C1.26155 6.62585 1.06284 6.53973 0.916323 6.38644C0.76981 6.23316 0.6875 6.02525 0.6875 5.80847ZM0.6875 9.89534C0.6875 9.67856 0.76981 9.47066 0.916323 9.31737C1.06284 9.16408 1.26155 9.07797 1.46875 9.07797H9.28125C9.48845 9.07797 9.68716 9.16408 9.83368 9.31737C9.98019 9.47066 10.0625 9.67856 10.0625 9.89534C10.0625 10.1121 9.98019 10.32 9.83368 10.4733C9.68716 10.6266 9.48845 10.7127 9.28125 10.7127H1.46875C1.26155 10.7127 1.06284 10.6266 0.916323 10.4733C0.76981 10.32 0.6875 10.1121 0.6875 9.89534Z" fill="#818181"/>
</svg>
